<?xml version="1.0" encoding="UTF-8" standalone="no"?>
<svg
   xmlns:dc="http://purl.org/dc/elements/1.1/"
   xmlns:cc="http://creativecommons.org/ns#"
   xmlns:rdf="http://www.w3.org/1999/02/22-rdf-syntax-ns#"
   xmlns:svg="http://www.w3.org/2000/svg"
   xmlns="http://www.w3.org/2000/svg"
   xmlns:sodipodi="http://sodipodi.sourceforge.net/DTD/sodipodi-0.dtd"
   xmlns:inkscape="http://www.inkscape.org/namespaces/inkscape"
   height="24"
   viewBox="0 0 196.31622 41.503"
   version="1.1"
   id="svg835"
   sodipodi:docname="backoffice_logo_purple.svg"
   width="196.31622"
   inkscape:version="1.0.1 (c497b03c, 2020-09-10)">
  <metadata
     id="metadata841">
    <rdf:RDF>
      <cc:Work
         rdf:about="">
        <dc:format>image/svg+xml</dc:format>
        <dc:type
           rdf:resource="http://purl.org/dc/dcmitype/StillImage" />
        <dc:title></dc:title>
      </cc:Work>
    </rdf:RDF>
  </metadata>
  <defs
     id="defs839" />
  <sodipodi:namedview
     pagecolor="#ffffff"
     bordercolor="#666666"
     borderopacity="1"
     objecttolerance="10"
     gridtolerance="10"
     guidetolerance="10"
     inkscape:pageopacity="0"
     inkscape:pageshadow="2"
     inkscape:window-width="2560"
     inkscape:window-height="1035"
     id="namedview837"
     showgrid="false"
     fit-margin-top="0"
     fit-margin-left="0"
     fit-margin-right="0"
     fit-margin-bottom="0"
     inkscape:zoom="1.9677153"
     inkscape:cx="98.156369"
     inkscape:cy="12.001157"
     inkscape:window-x="0"
     inkscape:window-y="23"
     inkscape:window-maximized="1"
     inkscape:current-layer="svg835" />
  <path
     fill="#814c9f"
     d="m -51.313046,21.027832 q 3.731,0.804 6.028003,3.56 2.353,2.755 2.353,6.486 0,4.937 -3.387,7.922 -3.330003,2.985 -9.700003,2.985 H -71.060042 V 1.5108323 h 14.809996 q 6.085,0 9.242003,2.698 3.157,2.698 3.158,7.4049997 0,3.904 -2.124,6.314 -2.067003,2.411 -5.339003,3.1 z m -14.522996,-1.78 h 8.724996 q 3.846,0 5.856,-1.779 2.066,-1.78 2.066,-4.994 0,-3.0999997 -2.009,-4.8799997 -2.009,-1.78 -6.142,-1.779 h -8.495996 z m 8.839996,18.37 q 4.133,0 6.372,-1.894 2.296,-1.895 2.296,-5.339 0,-3.387 -2.353,-5.281 -2.297,-1.952 -6.43,-1.952 h -8.724996 v 14.466 z m 44.287003,-4.994 h -17.795 l -3.387,9.357 h -5.625 l 14.982,-39.7239997 h 5.913 L -3.6960425,41.980832 h -5.626 z m -1.492,-4.076 -7.405,-20.4359997 -7.405,20.4359997 z m 33.639,-27.4389997 q 7.405,0 12.227,3.674 4.822,3.616 6.659,9.9299997 h -5.511 q -1.55,-4.017 -4.994,-6.3709997 -3.445,-2.411 -8.439,-2.411 -3.96,0 -7.118,1.952 -3.0999995,1.894 -4.9369995,5.5099997 -1.78,3.56 -1.78,8.382 0,4.764 1.78,8.323 1.837,3.56 4.9369995,5.51 3.157,1.895 7.118,1.895 4.994,0 8.439,-2.353 3.444,-2.411 4.994,-6.43 h 5.51 q -1.836,6.315 -6.658,9.989 -4.822,3.616 -12.227,3.616 -5.683,0 -10.0459995,-2.583 -4.363,-2.64 -6.831,-7.29 -2.41100003,-4.707 -2.41100003,-10.677 0,-6.028 2.41000003,-10.735 2.47,-4.7069997 6.832,-7.2899997 4.3629995,-2.64 10.0459995,-2.64 z m 36.02,20.4359997 18.486,20.436 h -6.43 l -16.876,-18.886 v 18.886 h -5.224 V 1.5108323 h 5.224 V 20.280832 l 16.933,-18.7699997 h 6.372 z m 42.193,-20.66599971 q 5.683003,0 10.275003,2.64100001 4.65,2.64 7.29,7.4049997 2.698,4.707 2.698,10.677 0,5.97 -2.698,10.735 -2.64,4.764 -7.29,7.405 -4.592,2.64 -10.275003,2.64 -5.683,0 -10.333,-2.64 -4.592,-2.64 -7.29,-7.405 -2.641,-4.765 -2.641,-10.735 0,-5.97 2.64,-10.677 2.699,-4.7639997 7.29,-7.4049997 4.651,-2.63900001 10.334,-2.63900001 z m 0,7.46300001 q -3.56,0 -6.257,1.607 -2.697,1.6069997 -4.248,4.6499997 -1.493,2.985 -1.493,7.003 0,4.018 1.493,7.061 1.55,2.985 4.248,4.592 2.698,1.607 6.257,1.608 3.559003,0.001 6.257003,-1.608 2.698,-1.609 4.19,-4.592 1.55,-3.042 1.55,-7.06 0,-4.018 -1.55,-7.004 -1.492,-3.042 -4.19,-4.6499997 -2.698,-1.608 -6.257003,-1.607 z m 51.376003,-6.888 v 6.429 h -17.049 V 18.732832 h 13.663 v 6.199 h -13.662 v 17.049 h -8.094 V 1.4538323 Z m 30.711,0 v 6.429 h -17.049 V 18.732832 h 13.662 v 6.199 h -13.662 v 17.049 h -8.094 V 1.4538323 Z m 13.49,0 V 41.980832 h -8.094 V 1.4538323 Z m 25.688,-0.403 q 7.578,0 12.572,3.903 4.994,3.903 6.601,10.6199997 h -8.495 q -1.32,-3.272 -4.133,-5.166 -2.756,-1.8949997 -6.66,-1.8949997 -3.214,0 -5.797,1.6079997 -2.583,1.608 -4.018,4.592 -1.435,2.984 -1.435,7.003 0,3.961 1.435,6.946 1.435,2.985 4.018,4.592 2.583,1.607 5.798,1.608 3.903,0 6.659,-1.895 2.812,-1.894 4.133,-5.166 h 8.495 q -1.607,6.716 -6.601,10.62 -4.994,3.904 -12.572,3.903 -5.797,0 -10.275,-2.583 -4.42,-2.64 -6.888,-7.348 -2.411,-4.707 -2.411,-10.677 0,-6.027 2.41,-10.734 2.47,-4.7079997 6.89,-7.2899997 4.419,-2.641 10.273,-2.641 z m 33.438,6.83 V 18.386832 h 14.351 v 6.2 h -14.35 v 10.906 h 16.072 v 6.488 h -24.166 V 1.4538323 h 24.167 v 6.429 z"
     id="path833"
     style="fill:#984efb;fill-opacity:1" />
</svg>
