<svg
  xmlns="http://www.w3.org/2000/svg"
  height="24"
  viewBox="0 0 339.48 41.503"
>
  <path
    fill="#814c9f"
    d="M19.746 20.147q3.731.804 6.028 3.56 2.353 2.755 2.353 6.486 0 4.937-3.387 7.922Q21.41 41.1 15.04 41.1H-.001V.63h14.81q6.085 0 9.242 2.698t3.158 7.405q0 3.904-2.124 6.314-2.067 2.411-5.339 3.1zm-14.523-1.78h8.725q3.846 0 5.856-1.779 2.066-1.78 2.066-4.994 0-3.1-2.009-4.88t-6.142-1.779H5.223zm8.84 18.37q4.133 0 6.372-1.894 2.296-1.895 2.296-5.339 0-3.387-2.353-5.281-2.297-1.952-6.43-1.952H5.223v14.466zm44.287-4.994H40.555L37.168 41.1h-5.625L46.525 1.376h5.913L67.363 41.1h-5.626zm-1.492-4.076L49.453 7.231l-7.405 20.436zM90.497.228q7.405 0 12.227 3.674 4.822 3.616 6.659 9.93h-5.511q-1.55-4.017-4.994-6.371-3.445-2.411-8.439-2.411-3.96 0-7.118 1.952-3.1 1.894-4.937 5.51-1.78 3.56-1.78 8.382 0 4.764 1.78 8.323 1.837 3.56 4.937 5.51 3.157 1.895 7.118 1.895 4.994 0 8.439-2.353 3.444-2.411 4.994-6.43h5.51q-1.836 6.315-6.658 9.989-4.822 3.616-12.227 3.616-5.683 0-10.046-2.583-4.363-2.64-6.831-7.29-2.411-4.707-2.411-10.677 0-6.028 2.41-10.735 2.47-4.707 6.832-7.29Q84.814.229 90.497.229zm36.02 20.436L145.003 41.1h-6.43l-16.876-18.886V41.1h-5.224V.63h5.224V19.4L138.63.63h6.372zM168.71-.002q5.683 0 10.275 2.641 4.65 2.64 7.29 7.405 2.698 4.707 2.698 10.677t-2.698 10.735q-2.64 4.764-7.29 7.405-4.592 2.64-10.275 2.64t-10.333-2.64q-4.592-2.64-7.29-7.405-2.641-4.765-2.641-10.735t2.64-10.677q2.699-4.764 7.29-7.405Q163.027 0 168.71 0zm0 7.463q-3.56 0-6.257 1.607t-4.248 4.65q-1.493 2.985-1.493 7.003t1.493 7.061q1.55 2.985 4.248 4.592t6.257 1.608 6.257-1.608 4.19-4.592q1.55-3.042 1.55-7.06t-1.55-7.004q-1.492-3.042-4.19-4.65t-6.257-1.607zM220.086.573v6.429h-17.049v10.85H216.7v6.199h-13.662V41.1h-8.094V.573zm30.711 0v6.429h-17.049v10.85h13.662v6.199h-13.662V41.1h-8.094V.573zm13.49 0V41.1h-8.094V.573zM289.975.17q7.578 0 12.572 3.903t6.601 10.62h-8.495q-1.32-3.272-4.133-5.166-2.756-1.895-6.66-1.895-3.214 0-5.797 1.608t-4.018 4.592-1.435 7.003q0 3.961 1.435 6.946t4.018 4.592 5.798 1.608q3.903 0 6.659-1.895 2.812-1.894 4.133-5.166h8.495q-1.607 6.716-6.601 10.62t-12.572 3.903q-5.797 0-10.275-2.583-4.42-2.64-6.888-7.348-2.411-4.707-2.411-10.677 0-6.027 2.41-10.734 2.47-4.708 6.89-7.29Q284.12.17 289.974.17zM323.413 7v10.506h14.351v6.2h-14.35v10.906h16.072V41.1H315.32V.573h24.167v6.429z"
  ></path>
</svg>