<svg
  xmlns="http://www.w3.org/2000/svg"
  height="350"
  version="1"
  viewBox="0 0 8513.4 8512.3"
>
  <g fill="#ece7eeff" fill-opacity="0.3">
    <path
      d="M3800 8484c-767-83-1501-373-2108-831-150-114-341-282-359-316-24-47-20-111 11-155 42-60 769-780 799-791 37-14 93-14 120 0 12 7 49 35 82 64 461 400 1055 651 1675 705 141 13 172 26 201 82 18 35 19 66 19 593 0 603 0 600-55 643-25 20-39 22-144 21-64-1-172-7-241-15zm150-658v-385l-47-6c-241-32-478-84-665-146-327-109-681-298-953-508l-80-61-267 267c-148 147-268 271-268 274 0 4 46 43 103 88 519 414 1118 688 1762 806 125 22 331 51 393 54l22 1zM4324 8481c-65-40-64-29-64-653 0-540 1-564 20-595 31-51 59-64 172-74 230-20 412-54 608-111 352-102 724-297 1009-529 57-46 121-99 143-116 34-27 49-33 90-33 27 0 61 6 76 14 29 16 769 755 796 796 22 33 21 117-2 151s-132 132-272 244c-647 518-1425 832-2254 910-216 20-283 20-322-4zm406-292c493-57 1021-232 1465-484 201-114 470-301 597-415l43-39-271-272-272-271-103 79c-347 268-749 463-1169 568-114 29-211 46-437 81l-33 5v770l43-5c23-3 85-11 137-17zM1174 7176c-85-37-425-477-603-780C243 5838 28 5127 3 4520c-7-164 1-195 60-230 31-19 54-20 602-20 535 0 572 1 605 18 53 29 66 68 84 247 59 587 291 1140 670 1593 165 198 183 159-282 626-207 208-397 391-421 407-50 32-96 37-147 15zm340-615c252-252 268-271 255-289-8-11-41-55-75-98-255-330-450-733-555-1148-33-131-79-387-79-442v-34H675c-331 0-385 2-385 15 0 36 41 331 60 430 101 528 313 1038 617 1485 87 128 259 350 271 350 4 0 128-121 276-269zM7205 7165c-16-9-202-188-413-398-406-406-422-425-408-500 7-36 12-44 145-208 214-263 393-598 500-934 66-207 107-420 130-672 11-115 27-149 85-177 30-14 98-16 587-16 530 0 554 1 594 20 61 29 75 61 75 169 0 51-7 157-15 237-93 878-449 1695-1034 2367-41 46-86 91-100 100-42 24-111 30-146 12zm155-447c383-484 654-1070 775-1673 32-163 65-395 65-463v-32l-382 2-383 3-12 100c-16 131-56 327-93 459-103 365-301 765-529 1066-32 41-61 81-65 89-6 9 67 89 260 282 148 148 272 269 276 269s43-46 88-102zM4183 5942c-36-19-36-19-696-1004-421-629-427-638-427-688 0-49 6-59 540-859 296-446 551-818 565-827s47-19 73-21c37-4 54 0 82 19 26 17 178 237 574 831 531 794 540 809 540 857s-9 63-540 857c-389 584-548 814-573 831-40 26-93 28-138 4zm507-1042l433-650-433-650c-343-515-436-648-446-638-30 33-858 1275-858 1288 0 14 213 335 701 1058 90 133 165 242 167 242 1 0 198-292 436-650zM62 4220c-54-33-66-75-58-215 45-837 347-1660 853-2328 140-185 277-337 325-363 42-22 89-17 139 14 24 16 212 199 417 407 403 410 407 416 383 492-6 21-47 81-91 133-394 468-628 1036-680 1645-13 153-25 186-73 215-31 19-54 20-607 20-559 0-576-1-608-20zm1005-370c65-532 293-1094 614-1515 41-53 80-106 88-117 14-18-3-37-255-289-148-148-272-269-276-269-3 0-47 51-96 113-462 580-750 1275-836 2017-9 74-16 143-16 153 0 16 23 17 382 15l382-3zM7221 4214c-46-39-52-56-62-176-50-625-283-1190-689-1673-84-100-90-112-90-177v-53l408-407c365-364 411-407 447-414 70-13 109 10 207 120 578 644 950 1493 1043 2380 22 210 20 320-5 361-41 66-26 65-658 65h-570zm979-287c0-114-59-456-115-672-143-548-435-1116-778-1518l-50-59-546 546 38 45c177 214 367 543 479 828 92 234 165 518 192 744 7 52 13 100 15 107 4 9 89 12 385 12h380zM6220 2103c-14-10-70-55-125-102-147-122-371-268-557-359-331-164-633-252-988-288-85-8-169-18-187-20-42-6-89-51-102-100-14-52-15-1084-1-1136 6-20 26-50 46-67 34-30 38-31 130-31 198 0 558 51 819 115 381 94 785 256 1120 450 226 131 515 342 707 516 85 77 106 118 94 186-7 34-53 84-399 431-216 216-404 400-419 408-37 19-108 18-138-3zm339-597l273-273-93-76c-522-419-1137-701-1783-817-127-22-333-50-377-50h-29v769l33 5c17 3 86 13 152 22 399 56 840 218 1204 445 74 46 345 241 346 248 0 1 123-122 274-273zM2122 2088c-61-44-791-795-798-823-14-55 2-105 48-152 158-163 514-421 803-584C2724 222 3394 27 3987 3c169-7 185-2 223 60 19 31 20 55 20 605 0 526-1 576-17 603-21 35-86 69-134 69-19 0-92 7-163 15-569 67-1102 297-1541 665-44 37-90 72-102 79-38 19-115 14-151-11zm210-396c295-222 652-402 1006-507 153-45 368-90 505-106l107-13V289l-52 6c-608 70-1069 210-1540 466-206 113-481 299-653 444l-30 25 270 270c148 148 273 270 276 270 4 0 54-35 111-78z"
      transform="rotate(17.957 4226.7 4276.4)"
    />
  </g>
</svg>