<svg
  xmlns="http://www.w3.org/2000/svg"
  height="350"
  version="1"
  viewBox="0 0 8513.4 8512.3"
>
  <path
    fill="#ece7ee66"
    fillOpacity="0.3"
    d="M2523.569 8147.487c-704.049-315.425-1312.886-817.593-1749.116-1440.423-107.546-154.693-237.447-373.395-244.088-411.288-8.34-52.11 15.196-111.76 58.251-144.059 58.452-44.128 972.017-504.92 1003.947-506.134 39.514-1.911 92.786 15.354 114.155 36.996 9.257 10.359 35.822 48.402 58.274 86.163 315.222 522.643 802.903 944.549 1376.054 1187.066 130.123 55.838 155.605 77.762 165.928 139.975 6.332 38.844-2.274 68.643-164.75 569.971-185.906 573.627-184.981 570.773-250.56 594.722-29.947 11.318-43.882 8.905-143.46-24.418-60.573-20.683-161.463-59.688-224.635-88.57zm345.557-579.702l118.696-366.246-42.86-20.198c-219.395-104.742-428.819-227.277-587.595-343.91-277.466-204.505-555.953-493.438-749.96-777.067l-57.296-82.693-336.31 171.677c-186.112 94.21-338.496 175.174-339.421 178.028-1.233 3.805 30.502 55.087 70.852 115.469 366.081 553.842 851.428 999.169 1427.677 1309.968 112.129 59.466 299.153 150.564 357.208 172.533l20.62 7.734zm153.843 738.4c-49.502-58.092-51.942-47.32 140.44-640.923 166.483-513.696 174.834-536.219 202.466-559.85 45.213-38.96 75.857-42.693 186.436-17.368 224.962 51.884 408.579 75.651 612.604 81.855 366.3 11.492 780.3-59.32 1122.943-192.153 68.405-26.186 145.627-56.873 171.797-66.262 40.668-15.203 56.787-16.286 95.79-3.646 25.685 8.325 56.179 24.515 67.982 36.75 22.654 24.16 498.771 955.307 511.816 1002.634 10.754 38.175-16.095 117.775-48.457 143.028s-166.266 84.874-333.976 148.256c-775.185 293.295-1612.094 352.14-2424.76 170.757-211.644-47.568-275.38-68.224-305.081-103.079zm476.247-152.606c486.559 97.77 1042.792 94.079 1542.856-8.76 226.356-46.477 539.905-141.435 695.865-210.727l52.93-23.843-173.941-342.3-175.2-341.658-122.34 43.396c-412.721 147.964-855.258 209.528-1287.171 179.926-117.388-7.56-214.904-21.293-440.686-57.675l-32.934-5.417-237.393 732.492 42.447 8.5c22.804 4.238 84.25 15.742 135.567 26.066zm-3070.47-2059.98c-69.451-61.404-257.236-584.794-333.15-927.912-139.989-631.943-125.312-1374.594 38.046-1959.733 43.902-158.17 61.07-185.193 127.987-200.298 35.347-8.517 57.535-2.378 578.841 166.572 508.94 164.943 543.829 177.301 569.98 203.647 41.477 43.927 41.82 85.036 3.757 260.866-124.848 576.596-74.64 1174.184 146.236 1721.965 95.919 239.225 125.066 207.674-461.26 508.565-261.044 134.049-498.209 249.557-525.972 257.378-57.43 15.026-102.731 5.6-144.464-31.05zm513.045-480.22c317.417-162.032 338.496-175.174 331.678-196.305-4.219-12.93-22.046-64.961-41.133-116.349-140.838-392.542-202.093-836.03-174.033-1263.187 8.996-134.793 44.162-392.504 61.119-444.825l10.482-32.344-366.246-118.697c-314.876-102.048-366.862-116.794-370.87-104.427-11.1 34.246-63.046 327.517-75.493 427.552-66.704 533.419-22.266 1083.936 129.114 1602.886 43.3 148.587 138.478 412.801 149.893 416.5 3.805 1.234 159.07-75.642 345.49-170.804zM6169.357 7942.51c-12.446-13.494-134.2-241.12-270.177-505.942-261.052-511.394-270.415-534.401-233.974-601.431 17.758-32.089 24.98-38.157 202.064-153.164 284.659-184.212 558.221-447.708 763.599-734.352 126.604-176.569 231.275-366.553 330.847-599.186 45.919-106.007 71.622-133.418 135.43-142.172 32.854-4.07 98.158 14.993 563.338 165.753 504.183 163.4 526.705 171.751 558.9 202.158 49.087 46.394 52.54 81.151 19.243 183.89-15.724 48.516-55.063 147.194-87.338 220.83-359.16 806.56-949.702 1474.006-1713.385 1932.915-53.185 31.118-109.866 60.053-125.96 64.298-47.353 9.882-114.841-5.683-142.587-33.597zm285.261-377.439c513.562-342.343 952.027-816.248 1253.04-1352.57 80.694-145.194 183.613-355.719 204.578-420.406l9.866-30.442-364.01-115.869-365.267-115.226-42.246 91.429c-55.609 119.686-154.087 293.806-229.981 407.97-210.513 315.464-522.19 634.935-831.883 850.98-43.081 29.137-83 58.248-89.272 64.625-8.483 6.712 36.297 105.32 160.393 348.422 95.162 186.42 175.817 339.755 179.622 340.988s55.087-30.502 115.16-69.9zM3671.62 5847.393c-28.389-29.174-28.389-29.174-352.56-1169.673-206.57-728.155-209.503-738.567-194.088-786.131 15.107-46.613 23.898-54.276 778.528-650.673 419.085-333.017 776.352-608.279 792.445-612.524s50.568-3.584 75.918 2.529c36.431 7.602 51.37 16.648 72.148 43.355 19.492 24.188 96.262 280.334 289.84 967.487 260.34 919.031 264.278 936.076 249.48 981.737s-27.985 57.157-777.912 648.77c-550.1 435.623-772.265 605.4-801.288 613.863-46.067 12.402-97.102-2.036-132.511-38.74zm803.555-834.933l612.305-484.842-211.51-751.832c-167.517-595.662-214.982-750.855-227.578-744.426-38.713 22.144-1209.292 948.369-1213.3 960.736-4.316 13.318 99.343 384.35 340.669 1222.583 44.611 154.269 82.353 281.082 84.255 281.698.952.309 278.38-216.732 615.159-483.917zM282.258 2938.757c-41.195-48.04-39.662-91.694 11.11-222.408 300.859-782.355 841.881-1472.157 1529.18-1951.617 190.216-132.825 367.404-235.184 421.082-245.119 46.737-7.98 89.906 11.267 127.913 56.173 17.898 22.62 140.32 254.666 271.208 515.736 256.965 514.275 258.92 521.215 212.658 586.114-12.182 18.127-69.683 62.564-127.572 98.466-519.093 323.731-916.81 791.92-1154.034 1355.223-59.537 141.539-81.127 169.232-135.73 182.02-35.347 8.518-57.535 2.378-583.597-168.114-531.77-172.341-547.634-178.534-572.218-206.474zm1070.117-42.132c225.851-486.045 616.011-950.376 1051.17-1251.903 55.343-37.778 108.784-76.172 119.785-84.17 18.868-12.807 8.554-36.123-153.479-353.54-95.161-186.42-175.816-339.755-179.622-340.988-2.853-.925-60.434 34.025-126.161 77.898-618.311 409.312-1106.553 981.666-1417.125 1661.007-31.376 67.62-59.308 131.102-62.39 140.615-4.934 15.22 16.638 23.262 358.767 132.04l364.317 114.919zM7094.38 5140.192c-31.735-51.282-32.202-69.304-4.718-186.542 145.125-609.97 97.666-1219.282-139.647-1803.926-49.078-121.026-51.086-134.291-31.046-196.125l16.34-50.418 513.605-261.387c459.443-233.738 516.459-260.462 552.863-256.022 70.599 9.215 100.608 43.118 159.92 177.974 351.298 790.828 443.428 1713.16 258.433 2585.626-43.816 206.553-79.631 310.578-116.054 341.873-59.35 50.145-44.773 53.818-645.987-141.03l-542.235-175.732zM8114.174 5169c35.147-108.447 84.46-451.977 97.782-674.72 32.916-565.394-69.744-1195.75-272.098-1683.916l-29.375-71.541-687.736 351.07 22.275 54.523c102.401 258.145 181.714 629.697 200.392 935.344 15.375 250.965-2.739 543.637-46.73 766.953-9.373 51.625-18.464 99.136-18.72 106.412 1.031 9.795 80.966 38.854 362.547 130.112L8104 5200.393zM6792.97 2823.41c-10.235-13.83-49.634-73.902-87.464-135.57-102.227-161.377-270.303-369.325-419.187-513.237-264.315-258.06-524.473-434.88-851.081-578.574-78.393-33.816-155.219-69.227-171.725-76.679-38.105-18.656-68.941-75.954-66.201-126.575 2.713-53.784 319.931-1035.821 349.28-1080.972 11.875-17.176 40.15-39.548 64.416-49.554 41.593-18.057 45.707-17.775 133.225 10.59 188.355 61.043 515.096 220.548 743.65 361.898 333.46 206.884 667.836 485.547 926.707 773.379 174.603 194.295 384.473 484.116 513.476 708.835 57.12 99.455 64.457 144.932 32.077 205.92-17.142 30.186-76.316 63.568-512.443 286.992-272.072 138.885-507.642 255.96-524.377 258.947-41.056 6.667-108.289-16.174-130.353-45.4zm506.543-463.404l343.869-175.535-65.039-100.97C7210.95 1523.978 6712.848 1066.108 6134.08 756.595c-114.031-60.083-301.364-150.23-343.22-163.795l-27.588-8.94-237.085 731.54 29.851 14.93c15.247 8.095 77.803 38.881 137.813 67.79 362.3 176.286 731.872 466.356 1008.156 794.521 56.214 66.574 253.894 335.625 252.687 342.592-.309.952 154.621-78.136 344.82-175.226zm-4400.298-814.292c-44.463-60.663-507.368-1000.142-505.394-1028.936 3.639-56.637 34.274-99.268 92.524-129.797 200.557-106.348 618.758-242.024 943.933-307.985C4047.184-43.79 4744.666-22.728 5316.18 137.265c162.926 45.444 176.605 55.133 193.639 125.829 8.517 35.347 2.07 58.487-167.498 581.695-162.167 500.378-178.534 547.634-202.078 568.386-30.768 26.82-103.084 39.125-148.746 24.326-18.074-5.858-89.677-21.705-159.684-35.984-561.94-111.688-1139.886-57.218-1670.957 157.511-53.264 21.633-107.814 40.746-121.387 43.705-42.007 6.36-113.715-22.137-140.254-57.018zm321.859-311.966c349.073-120.237 744.178-181.404 1113.306-172.15 159.42 4.362 377.82 27.84 513.08 54.856l105.796 20.622 239.552-739.15-51.317-10.325c-599.965-120.858-1081.671-129.805-1608.653-31.487-230.804 43.986-549.753 136.142-758.078 221.05l-36.246 14.534 173.606 340.09c95.161 186.419 176.46 341.014 179.313 341.939 3.805 1.233 62.16-16.647 129.641-39.98z"
  ></path>
</svg>