<svg
  xmlns="http://www.w3.org/2000/svg"
  width="70"
  height="70"
  version="1"
  viewBox="0 0 5000 5000"
>
  <path
    fill="#fff"
    stroke="none"
    d="M1700 3962c-448-252-823-462-833-468-16-9-18-52-27-620-5-335-12-767-15-960l-6-351 118-70c65-39 419-250 788-470s688-410 710-423l40-22 410 229c226 126 602 336 836 467l427 238 6 226c3 125 8 430 11 677 3 248 8 578 11 735l6 286-218 130c-1140 681-1420 847-1434 850-8 1-382-203-830-454zm807 11c-3-2-16 2-30 8-22 10-40 6-134-31-59-23-243-95-408-160s-376-148-470-185c-93-36-175-71-181-76s-17-61-24-124c-7-62-16-119-20-125-4-7-52 17-133 67-69 43-124 79-122 81 1 2 344 194 761 427l759 423 3-150c1-83 1-153-1-155zm428 73c857-511 1124-671 1124-676 0-6-501-281-505-277-1 1-6 92-10 202l-7 201-498 229-499 229v328l33-20c17-11 181-108 362-216zm173-481l322-148v-181c0-124 4-186 12-194s4-14-17-24l-28-13-384 390-385 390-44-50-44-49v72c0 47 4 71 10 67 6-3 22 8 37 25l26 32 86-85 86-84 323-148zm-630 291l27-14-5-106-5-106-235-281c-129-155-242-294-251-308-10-14-25-70-34-124-17-96-18-97-39-84-11 8-147 92-301 187s-281 174-283 175c-2 2 4 59 14 128l17 126 171 67c94 37 333 131 531 210 198 78 361 143 363 143 2 1 15-5 30-13zm433-523c152-153 299-303 327-334l52-56-353-193c-193-107-366-202-383-212l-31-18 5 487 5 488 46 57c25 31 48 57 51 57 3 1 130-124 281-276zm-416-363c-7-412-10-470-23-465-10 4-399 240-408 249-1 0 8 52 20 114l21 114 195 233c106 129 196 232 198 230s1-216-3-475zm-1288 278c26-16 31-24 27-46-2-15-40-317-84-672s-83-661-86-682c-5-34-4-36 25-43 17-4 33-10 36-14 5-9-174-105-182-97-3 3 0 326 6 718s11 775 11 850v138l108-67c59-36 121-75 139-85zm2843-780c-7-469-14-855-16-857-1-1-108 57-237 130l-234 134-6 305c-4 168-7 432-7 587v282l253 139c138 77 254 139 255 137 2-2-2-388-8-857zm-2503 569c109-68 244-152 301-187 94-58 103-67 99-90-3-14-29-156-58-316l-53-291-276-145-277-144-44 14c-24 8-45 16-47 18-4 2 151 1264 155 1264 1 0 91-55 200-123zm1951-60l22-24-40-125-40-126v-376c0-207-2-376-4-376-6 0-250 141-259 150-5 4 53 200 129 435 104 325 134 429 124 435-9 6-8 10 6 19 28 16 38 14 62-12zm-313-442c-64-198-117-363-118-367s-125 63-275 149c-188 107-270 159-263 166 19 19 766 426 769 419 1-4-50-169-113-367zm-792-90c-177-98-423-221-423-212 0 14 80 458 85 474 2 7 80-35 200-109l195-122-57-31zm94-252c-4-141-7-320-7-398v-141l-175-24c-96-12-175-27-175-32 0-8 34-58 60-91 6-7 201 14 268 28l22 5-1-177c-1-98-4-218-8-268l-6-90-52 75c-29 41-158 227-286 414l-233 338 32 169c17 93 34 173 38 177 12 13 500 270 515 271 12 1 13-38 8-256zm302 88c139-80 255-149 257-155s-31-119-74-251l-78-240-190-278-189-278-3 227c-1 151 1 230 8 234 6 4 61 13 122 20 98 11 115 16 136 39 26 28 57 90 48 98-2 3-73-4-157-16s-153-20-153-19c-6 11 8 768 13 766 4-2 121-68 260-147zm-985-303c-13-73-26-141-28-152-3-12 107-180 337-515 188-273 345-497 349-499 9-4 11-92 2-92-3 0-323 190-712 422s-731 435-759 452c-29 17-53 37-53 44 0 6 55 40 123 73l123 62 301-97c165-53 306-96 312-96s-12 33-40 74l-52 74-116 37c-64 20-146 46-183 58-38 12-68 25-68 28 0 5 466 255 481 258 3 0-4-59-17-131zm1495 11l142-81-3-62-3-61-147-20c-81-11-151-24-156-30-9-10-32-84-32-102 0-5 101 4 228 22l227 30 5 76 5 76 225-128c124-71 224-132 223-135s-84-52-185-108c-413-231-650-363-976-545-188-105-344-191-347-191s-5 27-5 61v61l252 371 251 372 76 237c42 131 77 238 77 238 1 0 66-36 143-81z"
  />
</svg>
