<svg
  xmlns="http://www.w3.org/2000/svg"
  width="1493.4mm"
  height="481.776"
  viewBox="0 0 1493.4 127.47"
>
  <path
    fill="#895dac"
    d="M2776.6 185.67c-5.306-.293-11.084-.484-16.409.201-15.556 2.889-45.815 7.927-76.927 16.186-31.112 7.956-62.224 19.104-93.336 32.43-31.112 13.53-62.224 29.745-93.336 27.06-31.112-2.889-62.224-24.172-93.336-24.324-31.112.152-62.224 21.434-93.336 35.116-31.112 13.682-58.482 33.716-89.595 12.281-31.112-21.637 20.656 16.152-10.456 5.36-13.182 34.196-135.48-18.82-147.56-29.8l-32.394-28.378v81.076h746.69zm-1493.4 0l37.318 3.215c15.556 2.888 24.906 4.913 56.018 13.172 31.112 7.955 62.224 19.104 93.336 32.43 31.112 13.53 62.224 29.745 93.336 27.059 31.112-2.889 62.224-24.171 93.336-24.323 31.112.152 62.224 21.434 93.336 35.116 31.112 13.682 62.224 18.749 93.336-2.686 31.112-21.637 62.224-70.283 93.336-81.076 31.112-10.996 62.224 16.367 77.78 29.694l15.556 13.53v81.076h-746.69z"
    transform="translate(-1283.2 -185.4)"
  />
  <path
    fill="#814c94"
    d="M2776.6 275.71l-15.556-6.195c-15.556-6.195-46.668-18.585-77.78-22.728-31.112-3.988-62.224-.116-93.336-4.104-31.112-4.143-62.224-16.533-93.336-18.585-31.112-2.207-62.224 6.31-93.336 16.494-31.112 10.338-62.224 22.728-93.336 28.923-31.112 6.195-62.224 6.195-93.336 4.143-31.112-2.207-62.224-6.08-93.336-6.195-31.112.116-62.224 3.988-77.78 6.195l-15.556 2.052v37.17H2776.6zm-1493.4 0l15.556-6.195c15.556-6.195 46.668-18.585 77.78-22.728 31.112-3.988 62.224-.116 93.336-4.104 31.112-4.143 62.224-16.533 93.336-18.585 31.112-2.207 62.224 6.31 93.336 16.494 31.112 10.338 62.224 22.728 93.336 28.923 31.112 6.195 62.224 6.195 93.336 4.143 31.112-2.207 62.224-6.08 93.336-6.195 31.112.116 62.224 3.988 77.78 6.195l15.556 2.052v37.17H1283.2z"
    transform="translate(-1283.2 -185.4)"
  />
</svg>
