<svg
  xmlns="http://www.w3.org/2000/svg"
  width="1493.4mm"
  height="479.433"
  viewBox="0 0 1493.4 126.85"
>
  <path
    fill="#895dac"
    d="M2029.9 16.645l23.975 7.023c8.148 2.47 47.791 23.475 78.903 15.216 31.112-7.956 52.683 14.947 83.795 1.62 31.112-13.53 62.224-29.746 93.336-27.06 31.112 2.889 62.224 24.171 93.336 24.323 31.112-.152 62.224-21.434 93.336-35.116 31.112-13.682 62.224-18.749 93.336 2.686 31.112 21.637 62.224 70.283 93.336 81.076 31.112 10.996 62.224-16.367 77.781-29.694l15.556-13.53v-81.076H2029.9zm-746.71 26.544c5.622-5.808 15.404-9.276 24.89-12.911 26.501-10.153 74.671 40.899 124.45 47.716 49.78 6.816 99.561-6.816 149.34-20.45 49.78-13.633 99.561-27.266 149.34-38.641 49.78-11.205 99.561-20.577 149.34-20.45 44.31-3.868 87.302-7.085 128.19 10.96l21.148 7.231v-54.532h-746.71z"
    transform="translate(-1283.2 37.887)"
  />
  <path
    fill="#814c94"
    d="M2029.9-.717l15.556 6.195c15.556 6.195 46.668 18.585 77.78 22.728 31.112 3.988 62.224.116 93.336 4.104 31.112 4.143 62.224 16.533 93.336 18.585 31.112 2.207 62.224-6.311 93.336-16.494 31.112-10.338 62.224-22.728 93.336-28.923 31.112-6.195 62.224-6.195 93.336-4.143 31.112 2.207 62.224 6.079 93.336 6.195 31.112-.116 62.224-3.988 77.78-6.195l15.556-2.052v-37.17H2029.9zm-746.71 0l16.492-2.153c17.171-1.228 47.894-4.439 77.127 3.201 31.113 6.068 61.945 15.507 93.058 25.672 31.113 10.32 62.226 22.688 93.338 20.64 31.113-2.203 62.225-18.437 93.338-18.552 31.113.116 62.225 16.35 93.338 26.785 31.113 10.436 62.226 14.301 93.338-2.048 31.113-16.504 62.226-53.61 93.338-61.842 31.113-8.388 67.367-2.802 84.701 4.837l8.638 3.46v-37.17h-746.71z"
    transform="translate(-1283.2 37.887)"
  />
</svg>